<?xml version="1.0" encoding="UTF-8"?>
<svg width="28px" height="32px" viewBox="0 0 28 32" version="1.1" xmlns="http://www.w3.org/2000/svg" xmlns:xlink="http://www.w3.org/1999/xlink">
    <!-- Generator: sketchtool 54.1 (76490) - https://sketchapp.com -->
    <title>F16AC6EE-87D5-4ED1-B3BE-2D07C3275672</title>
    <desc>Created with sketchtool.</desc>
    <g id="Page-1" stroke="none" stroke-width="1" fill="none" fill-rule="evenodd">
        <g id="Dropdown" transform="translate(-732.000000, -1195.000000)" fill="#66DC88">
            <path d="M738.067189,1210.44272 L733.328063,1207.02401 C734.257921,1204.3877 735.664959,1201.90809 737.515341,1199.58959 C738.931712,1197.81513 740.667758,1196.38607 742.866982,1195.59154 C743.585668,1195.33331 744.347522,1195.19206 745.091875,1195.00005 L746.950424,1195.00005 C747.030926,1195.02985 747.110261,1195.0795 747.194264,1195.09275 C749.568493,1195.41277 751.571713,1196.49753 753.178255,1198.16716 C755.557152,1200.63904 757.322365,1203.34598 758.464562,1206.27031 L753.395261,1210.37651 L746.032233,1204.92732 L738.067189,1210.44272 Z M753.482647,1213.15087 L759.431638,1208.32959 C759.932151,1210.55318 760.109489,1212.88713 759.934484,1215.32922 C759.534307,1220.94945 755.726206,1225.13952 750.134225,1226.49685 C749.260368,1226.70872 748.365511,1226.83563 747.481155,1227.00005 L744.563244,1227.00005 C744.348572,1226.95701 744.138566,1226.89411 743.923894,1226.86984 C741.699002,1226.61161 739.603613,1225.97378 737.73223,1224.75549 C733.84946,1222.22401 732.06558,1218.53384 732.002578,1214.10872 C731.978078,1212.3784 732.137915,1210.69885 732.462257,1209.07226 L738.028571,1213.08686 L745.970281,1207.59133 L753.482647,1213.15087 Z" id="Combined-Shape"></path>
        </g>
    </g>
</svg>