<?xml version="1.0" encoding="UTF-8"?>
<svg width="10px" height="10px" viewBox="0 0 10 10" version="1.1" xmlns="http://www.w3.org/2000/svg" xmlns:xlink="http://www.w3.org/1999/xlink">
    <!-- Generator: sketchtool 54.1 (76490) - https://sketchapp.com -->
    <title>40438D49-CBBC-44FD-B6E1-29F4CE208985</title>
    <desc>Created with sketchtool.</desc>
    <g id="Page-1" stroke="none" stroke-width="1" fill="none" fill-rule="evenodd">
        <g id="Dropdown" transform="translate(-179.000000, -1222.000000)" fill="#00A6F0">
            <path d="M183.421357,1227.71864 C182.927203,1227.22507 182.456195,1226.7529 181.985186,1226.28306 C181.754311,1226.05276 181.536166,1226.05276 181.306448,1226.27843 C181.139223,1226.44102 180.973155,1226.60477 180.808822,1226.76853 C180.577947,1226.99651 180.577947,1227.23838 180.806508,1227.46752 C181.472516,1228.13294 182.137367,1228.79779 182.802218,1229.46264 C182.9029,1229.56332 183.001268,1229.66574 183.104844,1229.76469 C183.28885,1229.94117 183.517989,1229.94464 183.709517,1229.77221 C183.733819,1229.7508 183.754072,1229.72939 183.777217,1229.7074 C184.913655,1228.57039 186.050093,1227.43453 187.18711,1226.29636 C187.211991,1226.27206 187.234558,1226.24776 187.255967,1226.22056 C187.402362,1226.04292 187.398311,1225.80742 187.240923,1225.64424 C187.04708,1225.44404 186.850344,1225.24846 186.648401,1225.05751 C186.471339,1224.88913 186.253772,1224.89318 186.068609,1225.05346 C186.043728,1225.07545 186.02174,1225.09686 186.000331,1225.11885 C185.167676,1225.94976 184.334442,1226.7801 183.502366,1227.61333 C183.473434,1227.64284 183.452025,1227.67872 183.421357,1227.71864 M184.006935,1222.00002 C186.774543,1222.00522 189.009229,1224.24511 188.999971,1227.00461 C188.990713,1229.77973 186.750241,1232.01268 183.98784,1231.99995 C181.212131,1231.98606 178.994225,1229.75485 179.000011,1226.98031 C179.005219,1224.22544 181.247427,1221.99307 184.006935,1222.00002" id="go"></path>
        </g>
    </g>
</svg>