<?xml version="1.0" encoding="UTF-8"?>
<svg width="28px" height="32px" viewBox="0 0 28 32" version="1.1" xmlns="http://www.w3.org/2000/svg" xmlns:xlink="http://www.w3.org/1999/xlink">
    <!-- Generator: sketchtool 54.1 (76490) - https://sketchapp.com -->
    <title>41880A2E-D5B7-42F4-AB80-F450D0D3B5BF</title>
    <desc>Created with sketchtool.</desc>
    <g id="Page-1" stroke="none" stroke-width="1" fill="none" fill-rule="evenodd">
        <g id="Dropdown" transform="translate(-681.000000, -1195.000000)">
            <g id="Group" transform="translate(681.000207, 1195.000000)">
                <path d="M21.1652264,8.2761513 L6.81781897,8.2761513 C5.84507823,9.6711513 5.05381897,11.2971513 4.42952267,13.1911513 C3.52730045,15.9251513 3.29085601,18.2361513 3.68181897,20.4651513 C4.3911523,24.5091513 7.47633749,27.4311513 11.7292264,28.0911513 L12.923893,28.2881513 L15.133819,28.2881513 C15.3339671,28.2531513 15.5341153,28.2191513 15.7363375,28.1861513 C16.1936708,28.1101513 16.6520412,28.0351513 17.1010782,27.9291513 C21.4047819,26.9051513 24.1529301,23.8591513 24.4495227,19.7791513 C24.7606338,15.5131513 23.6406338,11.6621513 21.1652264,8.2761513" id="Fill-1" fill="#99DBF9"></path>
                <path d="M26.1691375,20.4011513 C25.8238042,25.1521513 22.6224708,28.7001513 17.6104708,29.8921513 C17.0878042,30.0161513 16.5547671,30.1031513 16.0217301,30.1911513 C15.7873597,30.2301513 15.5529893,30.2681513 15.319656,30.3101513 L12.7467671,30.3101513 L11.3561005,30.0811513 C6.40113749,29.3131513 2.80987823,25.9101513 1.98232267,21.2011513 C1.52706342,18.6041513 1.8039523,15.9141513 2.85447082,12.7291513 C4.03980416,9.1301513 5.73743379,6.3541513 8.04276712,4.2451513 C10.0307671,2.4241513 12.0612856,1.5791513 14.395656,1.7031513 C16.5454338,1.8001513 18.4411375,2.6641513 20.0329893,4.2671513 C24.5523967,8.8181513 26.6171375,14.2471513 26.1691375,20.4011513 M21.3178782,3.1041513 C19.4035079,1.1721513 17.1023227,0.132151297 14.480693,0.012151297 C11.6578782,-0.122848703 9.17417453,0.866151297 6.81802638,3.0231513 C4.29076712,5.3341513 2.44173008,8.3411513 1.16513749,12.2201513 C0.028544897,15.6681513 -0.267010659,18.6091513 0.236989341,21.4781513 C1.19417453,26.9251513 5.34647082,30.8591513 11.0698782,31.7471513 L12.519656,31.9881513 L15.4845449,32.0001513 L15.5664708,31.9841513 C15.8195079,31.9381513 16.0725449,31.8961513 16.3255819,31.8541513 C16.8990634,31.7581513 17.4735819,31.6641513 18.0387671,31.5291513 C23.746619,30.1721513 27.5390634,25.9521513 27.9352116,20.5161513 C28.4195079,13.8711513 26.1929893,8.0131513 21.3178782,3.1041513" id="Fill-3" fill="#00A6F0"></path>
            </g>
        </g>
    </g>
</svg>