<?xml version="1.0" encoding="UTF-8"?>
<svg width="18px" height="18px" viewBox="0 0 18 18" version="1.1" xmlns="http://www.w3.org/2000/svg" xmlns:xlink="http://www.w3.org/1999/xlink">
    <!-- Generator: sketchtool 54.1 (76490) - https://sketchapp.com -->
    <title>631F8856-2F60-4E27-840B-8A5D35D3C426</title>
    <desc>Created with sketchtool.</desc>
    <g id="Page-1" stroke="none" stroke-width="1" fill="none" fill-rule="evenodd">
        <g id="Dropdown" transform="translate(-1026.000000, -649.000000)" fill="#BDBDBD" fill-rule="nonzero">
            <g id="dropdown/no-results" transform="translate(1004.000000, 622.000000)">
                <g id="Group" transform="translate(10.000000, 11.000000)">
                    <path d="M19.6666667,31.3333333 C15.4324836,31.3333333 12,27.9008497 12,23.6666667 C12,19.4324836 15.4324836,16 19.6666667,16 C23.9008497,16 27.3333333,19.4324836 27.3333333,23.6666667 C27.3333333,27.9008497 23.9008497,31.3333333 19.6666667,31.3333333 Z M19.6666667,29.3333333 C22.7962802,29.3333333 25.3333333,26.7962802 25.3333333,23.6666667 C25.3333333,20.5370531 22.7962802,18 19.6666667,18 C16.5370531,18 14,20.5370531 14,23.6666667 C14,26.7962802 16.5370531,29.3333333 19.6666667,29.3333333 Z M29.7071068,32.2928932 C30.0976311,32.6834175 30.0976311,33.3165825 29.7071068,33.7071068 C29.3165825,34.0976311 28.6834175,34.0976311 28.2928932,33.7071068 L23.670671,29.0848846 C23.2801467,28.6943603 23.2801467,28.0611953 23.670671,27.670671 C24.0611953,27.2801467 24.6943603,27.2801467 25.0848846,27.670671 L29.7071068,32.2928932 Z" id="Combined-Shape"></path>
                </g>
            </g>
        </g>
    </g>
</svg>